<?xml version="1.0" encoding="UTF-8" standalone="no"?>
<!-- Created with Inkscape (http://www.inkscape.org/) -->

<svg
   width="115.22165mm"
   height="145.42398mm"
   viewBox="0 0 115.22165 145.42398"
   version="1.1"
   id="svg1"
   xml:space="preserve"
   xmlns:xlink="http://www.w3.org/1999/xlink"
   xmlns="http://www.w3.org/2000/svg"
   xmlns:svg="http://www.w3.org/2000/svg"><defs
     id="defs1"><linearGradient
       id="linearGradient29"><stop
         style="stop-color:#00b8d4;stop-opacity:0.7019608;"
         offset="0"
         id="stop29" /><stop
         style="stop-color:#00c853;stop-opacity:1;"
         offset="1"
         id="stop30" /></linearGradient><linearGradient
       xlink:href="#linearGradient29"
       id="linearGradient30"
       x1="106.27084"
       y1="48.474442"
       x2="106.27085"
       y2="163.69606"
       gradientUnits="userSpaceOnUse"
       gradientTransform="translate(53.556128,36.701221)" /></defs><g
     id="layer1"
     transform="translate(-53.556125,-36.701218)"><text
       xml:space="preserve"
       style="font-style:normal;font-variant:normal;font-weight:normal;font-stretch:normal;font-size:16.9333px;font-family:Inter;-inkscape-font-specification:'Inter, @opsz=32,wght=600';font-variant-ligatures:normal;font-variant-caps:normal;font-variant-numeric:normal;font-variant-east-asian:normal;font-variation-settings:'opsz' 32, 'wght' 600;text-align:center;writing-mode:lr-tb;direction:ltr;text-anchor:middle;white-space:pre;inline-size:136.165;fill:#37c871;stroke-width:0.264583"
       x="98.306992"
       y="183.68159"
       id="text1"
       transform="matrix(1.00584,0,0,1,11.622888,-1.7630869)"><tspan
         x="98.306992"
         y="183.68159"
         id="tspan2">CascadAir Inc</tspan></text><path
       style="fill:url(#linearGradient30)"
       d="m 121.81548,161.12651 c -0.58035,-0.4002 -1.17425,-0.86047 -1.31977,-1.02286 -0.14552,-0.16238 -0.93102,-0.77779 -1.74555,-1.36757 -0.81452,-0.58977 -1.68945,-1.28082 -1.94427,-1.53564 -0.25483,-0.25481 -1.13621,-0.98511 -1.95862,-1.62288 -1.53861,-1.19314 -6.76231,-6.25187 -8.92757,-8.64562 -0.67148,-0.74234 -1.5438,-1.7069 -1.93848,-2.14346 -1.25619,-1.38949 -4.567132,-5.91197 -6.156212,-8.4089 -1.24457,-1.95559 -3.12617,-5.87676 -3.12617,-6.51477 0,-0.59879 0.0501,-0.61194 1.78594,-0.46846 8.945272,0.7394 16.416912,0.83739 18.041002,0.2366 0.50837,-0.18806 0.0795,-0.34288 -2.25748,-0.8149 -1.5868,-0.3205 -3.89712,-0.7435 -5.13405,-0.93999 -1.23692,-0.19649 -2.54661,-0.48023 -2.91041,-0.63053 -0.3638,-0.15031 -1.55443,-0.53792 -2.64584,-0.86136 -1.0914,-0.32345 -2.222502,-0.72955 -2.513542,-0.90244 -0.29104,-0.17289 -1.09778,-0.47052 -1.79275,-0.6614 -0.69497,-0.19088 -1.32171,-0.44109 -1.39275,-0.55603 -0.071,-0.11495 -0.57398,-0.3515 -1.11766,-0.52568 -1.0461,-0.33515 -3.98152,-2.00072 -4.42809,-2.51252 -0.14552,-0.16677 -0.73239,-0.58251 -1.30415,-0.92384 -2.58189,-1.54136 -4.55171,-3.59039 -7.72022,-8.03067 -0.93659,-1.3125 -3.94744,-7.25356 -3.76731,-7.43369 0.09,-0.09 0.98095,0.27842 1.97978,0.81881 1.7162,0.9285 4.20966,2.17213 6.57857,3.28113 1.79113,0.8385 5.76375,2.346 6.87917,2.61044 0.58208,0.13799 1.41552,0.37603 1.85208,0.52897 2.45573,0.86029 7.240482,2.07329 10.054172,2.54887 1.16416,0.19677 2.75503,0.48459 3.53525,0.63959 6.68648,1.32838 21.46241,1.24716 27.45474,-0.15092 1.03721,-0.24199 2.07465,-0.36752 2.30543,-0.27896 0.30955,0.11878 -1.14282,1.70829 -5.53715,6.06001 -5.47809,5.42497 -6.16829,6.21439 -8.58929,9.824 -1.44789,2.15876 -2.63253,4.12657 -2.63253,4.3729 0,0.24634 -0.15737,0.68274 -0.34971,0.96978 -0.19234,0.28704 -0.59832,1.29579 -0.90218,2.24167 -1.6953,5.27723 -1.38714,13.21775 0.69309,17.85938 0.13043,0.29104 0.72624,1.5824 1.32402,2.86968 1.47326,3.1726 1.44308,3.34249 -0.37149,2.09126 z M 108.58946,108.1195 c -4.53208,-0.4555 -10.346302,-1.41846 -13.493752,-2.23485 -0.7276,-0.18873 -2.6326,-0.66706 -4.23333,-1.06296 -1.60073,-0.3959 -3.2676,-0.87664 -3.70417,-1.06832 -0.97264,-0.42706 -2.85816,-1.10428 -4.10104,-1.47297 -0.50932,-0.15109 -1.10463,-0.41753 -1.32291,-0.59209 -0.21829,-0.17457 -1.05172,-0.60873 -1.85209,-0.96482 -3.06722,-1.364624 -6.03733,-3.332084 -8.76119,-5.803564 -2.04805,-1.8583 -3.32679,-3.54626 -4.76442,-6.28917 -0.43858,-0.83679 -0.90849,-1.634541 -1.04424,-1.772781 -0.13575,-0.13825 -0.24681,-0.50698 -0.24681,-0.81942 0,-0.31243 -0.23813,-0.84261 -0.52917,-1.17819 -0.29104,-0.33557 -0.52917,-0.82563 -0.52917,-1.08902 0,-0.26339 -0.23812,-1.08301 -0.52916,-1.82139 -0.90497,-2.295912 -0.63091,-2.659762 1.02025,-1.354562 1.21133,0.957522 3.61114,2.302302 7.18183,4.024482 4.40943,2.12673 4.93028,2.35716 5.32792,2.35716 0.20634,0 0.61002,0.15986 0.89706,0.35525 0.28704,0.195391 0.99814,0.483591 1.58023,0.640441 0.58208,0.15685 2.07036,0.63496 3.30729,1.06246 2.73696,0.94593 6.89651,2.01031 11.1125,2.84356 1.09141,0.2157 2.52015,0.52053 3.175,0.67739 0.65484,0.15687 2.50031,0.45393 4.101042,0.66015 1.60073,0.20622 3.50573,0.48578 4.23333,0.62125 0.7276,0.13546 4.23995,0.38896 7.80521,0.56333 9.13559,0.4468 21.61041,0.0809 26.85521,-0.78774 5.78722,-0.95845 9.81757,-1.78613 11.70366,-2.40349 1.19827,-0.39221 2.24008,-0.65172 2.31512,-0.57668 0.29394,0.29395 0.11132,1.05456 -0.39273,1.63575 -0.29104,0.33557 -0.52917,0.71151 -0.52917,0.83543 0,0.26371 -2.04958,3.2699 -3.39896,4.9854 -2.37119,3.014544 -6.24138,6.164784 -8.77188,7.140104 -0.50933,0.19631 -1.04511,0.43721 -1.19063,0.53534 -0.97986,0.66075 -6.92389,2.02351 -10.45104,2.39606 -2.54346,0.26865 -17.99096,0.23776 -20.76979,-0.0415 z m 1.85208,-21.686925 c -4.96969,-0.31042 -12.114162,-0.98459 -13.361452,-1.26082 -0.65485,-0.14502 -1.96453,-0.34214 -2.91042,-0.43803 -0.94588,-0.0959 -2.08295,-0.28661 -2.5268,-0.4238 -0.44386,-0.13719 -1.75355,-0.42409 -2.91042,-0.63755 -2.90216,-0.5355 -6.18924,-1.34571 -11.87837,-2.927842 -0.86509,-0.24058 -1.81759,-0.58939 -2.11667,-0.77515 -0.29908,-0.18575 -0.90097,-0.41554 -1.33753,-0.51063 -0.43656,-0.0951 -1.1807,-0.34739 -1.65365,-0.56065 -0.47294,-0.21325 -1.24684,-0.5546 -1.71979,-0.75855 -2.92393,-1.26087 -5.93894,-2.78547 -6.25022,-3.16054 -0.19965,-0.24057 -0.48493,-0.4374 -0.63395,-0.4374 -0.35109,0 -2.73147,-1.5992 -3.8107,-2.56013 -0.46153,-0.41094 -1.15953,-1.01796 -1.55111,-1.34895 -1.05805,-0.89433 -3.02931,-3.519939 -3.21755,-4.285589 -0.0904,-0.36788 -0.35397,-0.96114 -0.58561,-1.31835 -0.32334,-0.49864 -0.42117,-1.359 -0.42117,-3.70417 0,-2.62335 0.0841,-3.23009 0.59531,-4.29693 0.32743,-0.68324 0.59532,-1.3209 0.59532,-1.41702 0,-0.44077 3.15237,-3.90097 4.36562,-4.79193 3.33792,-2.45122 7.2189,-4.851919 7.84362,-4.851919 0.15125,0 0.57773,-0.23813 0.94773,-0.52917 0.36999,-0.29104 0.92456,-0.52995 1.23235,-0.53091 0.3078,-9.6e-4 0.91682,-0.2383 1.35338,-0.52742 0.43657,-0.28913 1.00686,-0.52647 1.26732,-0.52743 0.26045,-9.6e-4 0.94032,-0.23987 1.51081,-0.53091 0.57049,-0.29104 1.23236,-0.52916 1.47083,-0.52916 0.23846,0 0.80875,-0.17078 1.26731,-0.37951 0.83894,-0.38187 2.99233,-1.00578 5.19936,-1.50642 0.65484,-0.14855 1.84547,-0.43283 2.64583,-0.63174 3.06741,-0.76231 5.2601,-1.19284 8.03261,-1.57716 1.58028,-0.21906 3.30668,-0.50975 3.83646,-0.64598 0.52977,-0.13622 2.39197,-0.32619 4.13822,-0.42213 1.746252,-0.096 4.246572,-0.34228 5.556252,-0.5474 2.84374,-0.44539 21.84142,-0.52334 25.66458,-0.10531 1.30969,0.1432 4.18671,0.43779 6.39337,0.65464 2.20667,0.21686 4.32778,0.5143 4.71358,0.66098 0.3858,0.14668 1.08541,0.26669 1.55469,0.26669 0.46927,0 1.56285,0.19169 2.43017,0.42598 0.86732,0.23428 2.35085,0.57661 3.29673,0.76072 0.94589,0.18412 2.07698,0.46032 2.51355,0.61379 0.43656,0.15347 1.86532,0.60682 3.17501,1.00744 1.30968,0.40062 2.6161,0.88523 2.90314,1.0769 0.28704,0.19168 0.67896,0.34851 0.87093,0.34851 0.49143,0 3.44576,1.41281 4.59916,2.1994 0.5307,0.36192 1.24268,0.7462 1.58218,0.85395 0.33951,0.10775 0.94856,0.55055 1.35346,0.983999 0.70296,0.75252 0.70917,0.78135 0.13761,0.63895 -2.29978,-0.57295 -7.87727,-1.784869 -9.85898,-2.142229 -6.13184,-1.10574 -23.59306,-1.85772 -28.97189,-1.24769 -1.38245,0.15678 -4.23995,0.41231 -6.35,0.56784 -3.68245,0.27142 -7.7599,0.78241 -10.84792,1.35945 -7.68588,1.436229 -10.05841,1.981999 -14.419782,3.317099 -3.61729,1.10732 -8.55432,3.26216 -9.67813,4.22416 -0.22974,0.19666 -0.52944,0.35756 -0.666,0.35756 -0.13656,0 -0.87613,0.54922 -1.64348,1.22048 -1.60592,1.40482 -2.69677,3.34397 -2.69677,4.79392 0,1.78074 1.7281,4.29713 3.70417,5.39384 3.55831,1.97487 5.67483,2.934879 7.27604,3.300269 0.43656,0.0996 0.91281,0.27312 1.05833,0.38555 0.14552,0.11243 0.74084,0.28396 1.32292,0.38116 0.58208,0.0972 1.83224,0.39068 2.77812,0.65216 2.19512,0.60683 4.019072,0.98065 7.064822,1.44794 1.33903,0.20544 3.06544,0.49583 3.83646,0.64531 4.38369,0.84988 22.06374,1.02484 29.20101,0.28896 3.83906,-0.39582 8.40289,-1.16946 9.06012,-1.53583 0.95367,-0.53163 0.62246,-1.33365 -1.14053,-2.7618 -1.33373,-1.080409 -4.45427,-2.834869 -5.04221,-2.834869 -0.0932,0 -0.54467,-0.1712 -1.00322,-0.38044 -1.26787,-0.57853 -4.78595,-1.73623 -5.27616,-1.73623 -0.23863,0 -1.00359,-0.19472 -1.6999,-0.4327 -1.70469,-0.58264 -3.97809,-1.10232 -6.68997,-1.52926 -1.23693,-0.19473 -2.72521,-0.4825 -3.30729,-0.63949 -0.58209,-0.15698 -2.42756,-0.42033 -4.10105,-0.58523 -1.67348,-0.16489 -3.81661,-0.40196 -4.7625,-0.52682 -0.94588,-0.12486 -5.2619,-0.31106 -9.59114,-0.41378 -4.329242,-0.10272 -7.871352,-0.27072 -7.871352,-0.37333 0,-0.18738 2.65374,-0.79882 6.350002,-1.46309 1.0914,-0.19614 2.40109,-0.47243 2.91042,-0.61398 0.50932,-0.14155 1.85833,-0.33787 2.99781,-0.43628 1.13948,-0.0984 2.44917,-0.2943 2.91042,-0.43533 0.46125,-0.14102 3.10082,-0.41969 5.86572,-0.61926 2.7649,-0.19957 6.78783,-0.50724 8.93986,-0.68371 3.03769,-0.2491 5.07917,-0.25111 9.12812,-0.009 6.87116,0.41087 13.68566,0.9776 13.98587,1.16314 0.13214,0.0817 1.24893,0.2858 2.48174,0.45362 5.13917,0.69959 9.96906,2.3522 13.2176,4.52258 2.77716,1.85544 3.71047,3.41519 3.70384,6.18987 -0.005,1.885029 -0.1185,2.204569 -1.93025,5.410539 -0.83604,1.4794 -2.73527,3.82541 -3.76245,4.64755 -0.54545,0.43656 -1.19936,0.98833 -1.45313,1.22615 -0.58824,0.55125 -3.13908,2.03291 -5.02057,2.91619 -3.50787,1.646812 -8.1993,3.087592 -12.31909,3.783312 -1.02742,0.1735 -2.01208,0.40448 -2.18814,0.51329 -0.34189,0.2113 -6.41149,0.85825 -11.42194,1.21744 -3.57004,0.25593 -16.05506,0.24706 -20.24063,-0.0144 z"
       id="path1" /></g></svg>
